<svg width="80" height="80" viewBox="0 0 80 80" fill="none" xmlns="http://www.w3.org/2000/svg">
<path fill-rule="evenodd" clip-rule="evenodd" d="M2.68702 80V54.4431C0.951727 49.9631 0 45.0927 0 40C0 17.9086 17.9086 0 40 0C62.0914 0 80 17.9086 80 40C80 45.0927 79.0483 49.9631 77.313 54.4431V80H40H2.68702ZM19.6906 52.7634H28.7646L31.2222 50.7337C31.8814 50.1893 32.287 48.6664 32.2666 47.9704C32.2503 47.4136 31.8314 46.7721 31.624 46.521C31.4166 46.2699 30.8659 45.7373 30.3222 45.616C29.6427 45.4645 28.0705 45.5748 27.4113 46.1192L24.2565 48.7246C23.2601 49.5475 21.3603 51.2483 19.6906 52.7634ZM38.5344 51.0534C38.3721 51.2304 37.9404 51.8739 37.3698 52.7634H42.5081C41.9374 51.8739 41.5058 51.2304 41.3435 51.0534C41.2982 51.004 41.2551 50.9568 41.214 50.9117C40.6454 50.2888 40.4515 50.0763 39.9389 50.0763C39.4264 50.0763 39.2325 50.2888 38.6639 50.9117L38.6624 50.9134C38.6217 50.9579 38.5791 51.0046 38.5344 51.0534ZM51.055 52.7634H60.129C58.4592 51.2483 56.5595 49.5475 55.5631 48.7246L52.4083 46.1192C51.7491 45.5748 50.1769 45.4645 49.4973 45.616C48.9537 45.7373 48.4029 46.2699 48.1955 46.521C47.9882 46.7721 47.5693 47.4136 47.553 47.9704C47.5326 48.6664 47.9381 50.1893 48.5974 50.7337L51.055 52.7634ZM32.7939 13.8015C34.5038 16.6107 37.997 22.3145 38.5344 22.9008C38.5572 22.9257 38.5795 22.95 38.6012 22.9738C38.6226 22.9972 38.6435 23.0201 38.6639 23.0425C39.2325 23.6654 39.4264 23.8779 39.9389 23.8779C40.4515 23.8779 40.6454 23.6654 41.214 23.0425L41.2144 23.042L41.2158 23.0405L41.2159 23.0404C41.2564 22.996 41.2989 22.9494 41.3435 22.9008C41.8809 22.3145 45.3741 16.6107 47.084 13.8015C46.2046 13.4595 43.2366 12.8855 39.9389 12.8855C36.6412 12.8855 33.6733 13.4595 32.7939 13.8015ZM28.1499 15.4497L25.7901 16.6016C26.6715 18.6857 28.654 23.304 29.5327 25.104L31.3276 28.7809C31.7026 29.5492 33.0884 30.2999 33.7698 30.4429C34.315 30.5574 35.0366 30.3002 35.3293 30.1573C35.622 30.0145 36.2687 29.6037 36.5138 29.1035C36.8202 28.4782 37.0808 26.9239 36.7057 26.1556L34.9109 22.4787C34.0322 20.6786 31.6106 16.2747 30.5097 14.2978L28.1499 15.4497ZM13.494 33.8173L12.9064 36.3766C15.0813 37.0012 19.9193 38.3625 21.8715 38.8107L25.8594 39.7262C26.6927 39.9174 28.1476 39.3116 28.6872 38.8715C29.1189 38.5195 29.3726 37.7966 29.4454 37.4792C29.5183 37.1617 29.6053 36.4006 29.3704 35.8955C29.0767 35.2642 28.0318 34.0844 27.1985 33.8931L23.2106 32.9777C21.2583 32.5295 16.3111 31.6444 14.0815 31.2579L13.494 33.8173ZM66.9185 36.3766L66.3309 33.8173L65.7434 31.2579C63.5138 31.6444 58.5666 32.5295 56.6143 32.9777L52.6264 33.8931C51.7931 34.0844 50.7482 35.2642 50.4545 35.8955C50.2196 36.4006 50.3066 37.1617 50.3795 37.4792C50.4523 37.7966 50.706 38.5195 51.1377 38.8715C51.6773 39.3116 53.1322 39.9174 53.9655 39.7262L57.9534 38.8107C59.9056 38.3625 64.7436 37.0012 66.9185 36.3766ZM51.6396 15.4497L53.9994 16.6016C53.1179 18.6857 51.1354 23.304 50.2567 25.104L48.4618 28.7809C48.0868 29.5492 46.701 30.2999 46.0196 30.4429C45.4744 30.5574 44.7528 30.3002 44.4601 30.1573C44.1674 30.0145 43.5207 29.6037 43.2756 29.1035C42.9692 28.4782 42.7086 26.9239 43.0837 26.1556L44.8785 22.4787C45.7572 20.6786 48.1788 16.2747 49.2797 14.2978L51.6396 15.4497ZM15.0058 29.0803C18.2679 29.4976 24.9045 30.3283 25.698 30.2743C25.7623 30.27 25.8237 30.2659 25.8825 30.262L25.8854 30.2619L25.8883 30.2617L25.8896 30.2616C26.7312 30.2061 27.0182 30.1872 27.3381 29.7868C27.658 29.3863 27.613 29.1022 27.4812 28.2691C27.4716 28.2089 27.4616 28.1458 27.4513 28.0795C27.3286 27.2937 25.0523 21.0045 23.9247 17.9152C23.1087 18.3889 20.8078 20.3495 18.7495 22.9261C16.6913 25.5026 15.2874 28.1798 15.0058 29.0803ZM54.1335 30.2743C54.927 30.3283 61.5636 29.4976 64.8257 29.0803C64.544 28.1798 63.1402 25.5026 61.082 22.9261C59.0237 20.3495 56.7228 18.3889 55.9068 17.9152C54.7792 21.0045 52.5028 27.2937 52.3802 28.0795C52.3756 28.1088 52.3711 28.1375 52.3667 28.1656C52.3619 28.1963 52.3571 28.2263 52.3525 28.2556L52.3519 28.2591L52.3511 28.2643L52.3503 28.2691C52.2185 29.1022 52.1735 29.3863 52.4934 29.7868C52.8133 30.1872 53.1003 30.2061 53.9419 30.2616C54.0028 30.2656 54.0666 30.2698 54.1335 30.2743ZM67.0884 38.5966C63.9834 39.6802 57.6745 41.9011 56.9886 42.3038C56.9308 42.3377 56.8756 42.37 56.823 42.4007C56.0947 42.8263 55.8464 42.9713 55.739 43.4725C55.6316 43.9737 55.7988 44.2078 56.2888 44.8943L56.2919 44.8987C56.3264 44.947 56.3625 44.9976 56.4002 45.0506C56.8609 45.6989 61.7065 50.3093 64.0952 52.5697C64.6138 51.7815 65.7968 48.9996 66.4875 45.775C67.1783 42.5505 67.2386 39.5281 67.0884 38.5966ZM22.8428 42.3038C22.157 41.9011 15.8481 39.6802 12.743 38.5966C12.5928 39.5281 12.6532 42.5505 13.344 45.775C14.0347 48.9996 15.2177 51.7815 15.7363 52.5697C18.125 50.3093 22.9706 45.6989 23.4313 45.0506C23.444 45.0326 23.4566 45.015 23.469 44.9976C23.4936 44.963 23.5175 44.9296 23.5407 44.8971L23.5427 44.8943C24.0327 44.2078 24.1998 43.9737 24.0925 43.4725C23.9851 42.9713 23.7368 42.8263 23.0085 42.4007L22.9494 42.3662C22.9149 42.346 22.8794 42.3252 22.8428 42.3038ZM44.8244 39.9389C44.8244 42.6371 42.6371 44.8244 39.9389 44.8244C37.2408 44.8244 35.0534 42.6371 35.0534 39.9389C35.0534 37.2407 37.2408 35.0534 39.9389 35.0534C42.6371 35.0534 44.8244 37.2407 44.8244 39.9389ZM65.9542 55.6947H66.8092C66.8092 55.8982 66.9679 56.3053 67.6031 56.3053C68.2382 56.3053 68.3155 55.8982 68.2748 55.6947H69.1298C69.1705 56.1425 68.9221 57.0382 67.6031 57.0382C66.284 57.0382 65.9542 56.1425 65.9542 55.6947ZM64.7328 57.6489H63.5115V64.1221H64.4885H64.7328H65.2214L70.4733 58.9924H70.5954V64.1221H71.8168V57.6489H71.0229H70.5954H70.3511L65.0992 62.7786H64.7328V57.6489ZM20.8855 57.6489H22.1069V62.7786H22.3511L27.6031 57.6489H28.0916H28.2748H29.313V64.1221H28.0916V58.9924H27.7252L22.4733 64.1221H22.1069H21.7405H20.8855V57.6489ZM63.4504 70.1069H64.7328V69.8626C64.7328 69.323 65.1703 68.8855 65.7099 68.8855H70.5954C71.0676 68.8855 71.4504 69.2683 71.4504 69.7405V70.1069C71.4504 70.579 71.0676 70.9618 70.5954 70.9618H65.5878V72.1832H70.5954C71.0676 72.1832 71.4504 72.566 71.4504 73.0382V73.5267C71.4504 73.9989 71.0676 74.3817 70.5954 74.3817H65.7099C65.1703 74.3817 64.7328 73.9442 64.7328 73.4046V73.0992H63.4504V73.8931C63.4504 74.77 64.1613 75.4809 65.0382 75.4809H71.2672C72.1441 75.4809 72.855 74.7701 72.855 73.8932V72.916C72.855 71.6947 71.4504 71.5115 71.4504 71.5115C71.4504 71.5115 72.855 71.2672 72.855 70.1069V69.2519C72.855 68.375 72.1441 67.6641 71.2672 67.6641H65.0382C64.1613 67.6641 63.4504 68.375 63.4504 69.2519V70.1069ZM18.3206 68.8855H17.2214V75.4809H18.0763H18.3206H24.7939V74.5038H18.3206V72.6718H24.7939V71.6947H18.3206V69.8626H24.7939V68.8855H18.3206ZM6.83969 68.8855H7.93893V74.5038H13.9237V68.8855H15.0229V74.5038H15.7557V75.1145V75.4809V76.458H14.5344V75.4809H13.9237H7.93893H7.32824H6.83969V68.8855ZM32.2443 57.6489H31.0229V64.1221H32.2443V61.313H38.1069V64.1221H39.3282V57.6489H38.1069V60.3359H32.2443V57.6489ZM26.626 68.8855H27.8473V71.5725H33.7099V68.8855H34.9313V75.4809H33.7099V72.6718H27.8473V75.4809H26.626V68.8855ZM36.5191 69.8626V68.8855H39.9389H41.1603H44.8244V69.8626H41.1603V75.4809H39.9389V69.8626H36.5191ZM41.0382 57.6489H42.2595V60.3359H48.1221V57.6489H49.3435V64.1221H48.1221V61.313H42.2595V64.1221H41.0382V57.6489ZM61.6794 57.6489H60.458V64.1221H61.6794V57.6489ZM7.93893 57.6489H9.03817V63.145H12.9466V57.6489H14.0458V63.145H17.9542V57.6489H19.0534V64.1221H18.1985H17.9542H14.0458H12.9466H9.03817H7.93893V63.145V57.6489ZM52.2748 57.6489H51.0534V64.1221H52.2748V64.0977C52.3537 64.1137 52.4354 64.1221 52.5191 64.1221H57.8931C58.5677 64.1221 59.1145 63.5753 59.1145 62.9008V60.2137C59.1145 59.5392 58.5677 58.9924 57.8931 58.9924H52.5191C52.4354 58.9924 52.3537 59.0008 52.2748 59.0168V57.6489ZM52.2748 59.9695V63.145H57.4046C57.6744 63.145 57.8931 62.9263 57.8931 62.6565V60.458C57.8931 60.1882 57.6744 59.9695 57.4046 59.9695H52.2748ZM46.4122 75.4809H47.6336V73.9908C47.7125 74.0069 47.7942 74.0153 47.8779 74.0153H53.2519C53.9265 74.0153 54.4733 73.4684 54.4733 72.7939V70.1069C54.4733 69.4323 53.9265 68.8855 53.2519 68.8855H47.8779C47.7942 68.8855 47.7125 68.8939 47.6336 68.9099V68.8855H46.4122V75.4809ZM47.6336 69.8626V73.0382H52.7634C53.0332 73.0382 53.2519 72.8194 53.2519 72.5496V70.3511C53.2519 70.0813 53.0332 69.8626 52.7634 69.8626H47.6336ZM61.5573 67.7863H58.2595V68.8855H60.2137V75.4809H61.5573V68.8855V68.1527V67.7863Z" fill="#FF7E00"/>
</svg>
