<svg width="130" height="50" viewBox="0 0 130 50" fill="none" xmlns="http://www.w3.org/2000/svg">
<path d="M5.52054 16.2979C1.89617 20.0933 -0.0862922 25.1643 0.00288328 30.4116C0.0920588 35.6589 2.24569 40.6596 5.99693 44.3297C6.53446 41.2109 6.8861 38.0628 7.05001 34.9022C7.50132 28.5211 5.65844 22.2026 5.52054 16.2979Z" fill="#FF7E00"/>
<path d="M32.2361 28.2949C26.9206 29.3354 26.9457 33.8987 26.4693 38.3242C26.0806 41.9723 25.7923 45.7333 25.6418 49.1182C29.7401 47.8901 33.3352 45.3776 35.8971 41.9512C38.459 38.5248 39.8521 34.3658 39.8709 30.0876C39.8709 29.6237 39.8709 29.1599 39.8709 28.7086L38.8931 28.5832C36.7104 28.0803 34.454 27.9826 32.2361 28.2949Z" fill="#FF7E00"/>
<path d="M34.7058 20.6229C35.6041 20.512 36.5085 20.4576 37.4137 20.4599C36.628 19.0373 35.6724 17.7155 34.5679 16.5234C34.915 17.8631 34.9621 19.2629 34.7058 20.6229Z" fill="#FF7E00"/>
<path d="M30.4935 27.0914C32.9344 26.694 35.4266 26.7365 37.8525 27.2168C38.414 27.2839 38.9797 27.3091 39.545 27.292C41.1747 27.2168 41.5634 26.5523 41.8141 25.2987C42.14 23.7065 41.8141 21.989 38.0531 21.4374H37.8651C36.6094 21.2494 35.3283 21.3263 34.1041 21.663C31.6845 27.129 25.3284 26.289 25.3284 26.289C25.3284 26.289 24.8646 25.9506 25.3284 25.9506C29.6285 25.9506 32.5495 23.4432 32.7752 19.419C32.6749 16.335 32.3865 15.658 32.3239 14.467C32.3239 14.3166 32.3239 14.1661 32.3239 13.9906C32.3239 11.5585 33.8283 10.3926 33.7656 7.52172C33.1513 7.52172 32.5119 11.032 27.911 10.4929C24.9773 9.9142 22.0142 9.4957 19.035 9.23924C17.2145 9.38931 15.4334 9.85155 13.7697 10.6057C13.7697 10.6057 15.6125 4.75112 13.6568 2.29395C13.0927 5.01439 9.63257 7.4465 8.16579 11.2827C7.90448 12.2068 7.71585 13.1499 7.60164 14.1034C7.36914 17.4062 7.64395 20.7251 8.41652 23.9447C8.41652 23.9447 13.8574 20.5473 18.333 20.3968C24.6891 20.1837 24.3882 23.4683 24.2503 24.7345C24.1124 26.0007 22.257 28.671 17.0919 27.7057C16.979 27.6054 16.7408 27.4173 17.2298 27.455C21.7053 27.7433 22.4826 26.1135 22.5578 24.6091C22.6456 22.7913 21.8683 22.0266 18.1825 22.4152C14.8189 22.8388 11.6337 24.1692 8.96813 26.264C8.96813 26.264 9.16872 31.3789 9.16872 35.2778C8.98568 38.8785 8.56689 42.4633 7.91505 46.0092C10.138 47.6761 12.6846 48.8605 15.3917 49.4865C18.0988 50.1126 20.9068 50.1665 23.636 49.6448C23.8115 45.3447 24.1876 40.4178 24.4634 37.7851C25.2281 30.4387 26.3815 28.2824 30.4935 27.0914Z" fill="white"/>
<path d="M37.4137 20.4598C36.5085 20.4574 35.6041 20.5118 34.7058 20.6228C34.9662 19.2637 34.9233 17.8639 34.5804 16.5233C34.254 15.6077 34.1217 14.6343 34.1918 13.6649C34.5052 10.9319 36.3731 7.68495 34.4926 4.30006C33.941 4.09948 32.4742 8.06105 30.18 8.65027C26.5194 9.50276 21.2414 6.61934 17.0041 7.64734C17.2422 3.88635 15.9008 0.514002 13.2431 0C11.1871 4.83914 6.04704 7.89807 5.55811 14.0661C5.52099 14.7969 5.52099 15.5292 5.55811 16.26C5.65841 22.2024 7.50129 28.5208 7.04997 34.902C6.88607 38.0626 6.53442 41.2106 5.99689 44.3295C6.6121 44.9308 7.26535 45.492 7.95261 46.0094C8.60445 42.4635 9.02323 38.8787 9.20627 35.2781C9.20627 31.3792 9.00568 26.2642 9.00568 26.2642C11.6713 24.1694 14.8564 22.839 18.2201 22.4155C21.8933 22.0143 22.6706 22.779 22.5954 24.6094C22.5202 26.1138 21.7429 27.731 17.2673 27.4552C16.7784 27.4552 17.0166 27.6056 17.1294 27.7059C22.307 28.6838 24.1625 26.0135 24.2878 24.7348C24.3203 24.3677 24.3203 23.9986 24.2878 23.6315C24.453 23.6954 24.6258 23.7376 24.8018 23.7569C28.4751 24.1706 29.3526 21.5379 29.3526 21.5379C29.4404 21.2872 29.0768 21.1744 28.9264 21.4627C28.2118 22.8793 25.9803 22.7164 24.8018 22.6161C24.5008 22.5774 24.2084 22.4884 23.9368 22.3528C23.3601 21.2496 21.8808 20.2717 18.3204 20.3971C13.8448 20.5475 8.40393 23.945 8.40393 23.945C7.63136 20.7254 7.35655 17.4065 7.58905 14.1037C7.70737 13.1498 7.90019 12.2067 8.16573 11.283C9.63252 7.44676 13.1052 5.01465 13.6693 2.2942C15.625 4.80153 13.7821 10.606 13.7821 10.606C15.4427 9.85752 17.2195 9.39955 19.035 9.25203C22.0142 9.50849 24.9772 9.927 27.9109 10.5057C32.4492 11.0322 33.1512 7.52198 33.7655 7.52198C33.8282 10.3929 32.3238 11.5588 32.3238 13.9909C32.3238 14.1664 32.3238 14.3168 32.3238 14.4673C32.3238 15.7209 32.6748 16.3352 32.7751 19.4192C32.5495 23.3933 29.6284 25.9759 25.3284 25.9508C24.852 25.9508 25.3284 26.2893 25.3284 26.2893C25.3284 26.2893 31.5967 27.1418 34.104 21.6633C35.3282 21.3266 36.6093 21.2497 37.865 21.4376H38.053C41.814 21.9892 42.2027 23.6942 41.814 25.2989C41.5633 26.5526 41.1747 27.217 39.5449 27.2922C38.9797 27.3093 38.4139 27.2842 37.8525 27.217C35.4266 26.7367 32.9343 26.6943 30.4935 27.0917C26.3814 28.2826 25.2155 30.4264 24.4633 37.7854C24.1875 40.4181 23.8114 45.3074 23.6359 49.645C24.3126 49.5169 24.9821 49.3537 25.6418 49.1561C25.7797 45.7712 26.0806 42.0102 26.4692 38.3621C26.9456 33.874 26.9205 29.3232 32.236 28.3328C34.4353 28.0143 36.6741 28.0993 38.8428 28.5835L39.8207 28.7089C41.6134 28.8844 43.8575 28.7089 43.8951 24.8727C43.9327 21.0365 40.0965 20.4723 37.4137 20.4598Z" fill="#221E20"/>
<path d="M28.588 14.6549C26.7702 15.4698 27.3343 19.4188 30.293 18.4911C30.5679 18.3951 30.8199 18.2432 31.0331 18.0449C31.2464 17.8466 31.4161 17.6062 31.5318 17.339C31.6474 17.0717 31.7064 16.7834 31.7049 16.4922C31.7035 16.2011 31.6417 15.9133 31.5234 15.6472C31.4052 15.3812 31.233 15.1425 31.0178 14.9463C30.8027 14.7501 30.5491 14.6007 30.2733 14.5074C29.9974 14.4142 29.7053 14.3791 29.4152 14.4045C29.1251 14.4299 28.8434 14.5152 28.588 14.6549ZM30.2428 16.385C30.099 16.385 29.9584 16.3423 29.8388 16.2624C29.7193 16.1825 29.6261 16.069 29.571 15.9361C29.516 15.8032 29.5016 15.657 29.5297 15.516C29.5577 15.3749 29.627 15.2454 29.7287 15.1437C29.8303 15.042 29.9599 14.9727 30.101 14.9447C30.242 14.9166 30.3882 14.931 30.5211 14.9861C30.6539 15.0411 30.7675 15.1343 30.8474 15.2539C30.9273 15.3734 30.9699 15.514 30.9699 15.6578C30.9699 15.8507 30.8933 16.0356 30.757 16.172C30.6206 16.3083 30.4357 16.385 30.2428 16.385Z" fill="#221E20"/>
<path d="M19.3987 13.9531C19.0243 14.0251 18.6804 14.2084 18.412 14.4791C18.1436 14.7498 17.9631 15.0951 17.8943 15.4701C16.9916 19.2937 23.0217 19.6448 22.5328 15.9465C22.3573 14.6677 21.4797 13.552 19.3987 13.9531ZM21.0033 16.1721C20.8273 16.1721 20.6552 16.1199 20.5088 16.0221C20.3625 15.9243 20.2484 15.7853 20.181 15.6226C20.1136 15.46 20.096 15.281 20.1303 15.1084C20.1647 14.9357 20.2495 14.7771 20.3739 14.6526C20.4984 14.5281 20.657 14.4434 20.8297 14.409C21.0024 14.3747 21.1813 14.3923 21.344 14.4597C21.5066 14.527 21.6456 14.6411 21.7434 14.7875C21.8412 14.9339 21.8934 15.106 21.8934 15.282C21.8901 15.5159 21.7949 15.7391 21.6283 15.9033C21.4618 16.0675 21.2373 16.1596 21.0033 16.1596V16.1721Z" fill="#221E20"/>
<path d="M53.7239 36.6272C53.6302 36.3828 53.5793 36.1241 53.5734 35.8625C53.5714 35.5878 53.6225 35.3154 53.7239 35.0601C53.9485 35.0907 54.1762 35.0907 54.4008 35.0601C55.128 34.9724 56.3315 34.2327 56.7703 28.4659L57.2843 21.834H65.1698V36.5269C64.8379 36.6331 64.4899 36.6797 64.1418 36.6648C63.785 36.6946 63.4259 36.6475 63.0887 36.5269V23.4637H59.1397L58.751 28.4784C58.1994 35.9377 56.0933 36.74 54.7393 36.74C54.397 36.7573 54.0541 36.7192 53.7239 36.6272Z" fill="#1A1E29"/>
<path d="M71.7766 25.6328C74.6224 25.6328 76.3524 27.1748 76.3524 31.2618C76.3524 35.3487 74.5973 36.8907 71.7766 36.8907C68.9558 36.8907 67.2007 35.3362 67.2007 31.3119C67.2007 27.2876 68.9307 25.6328 71.7766 25.6328ZM71.7766 27.225C70.2722 27.225 69.2692 28.09 69.2692 31.2618C69.2692 34.4335 70.2345 35.2986 71.7766 35.2986C73.3186 35.2986 74.2839 34.4335 74.2839 31.2618C74.2839 28.09 73.2809 27.2124 71.7766 27.2124V27.225Z" fill="#1A1E29"/>
<path d="M80.4144 36.5525C80.0736 36.6576 79.7176 36.7042 79.3613 36.6904C79.0173 36.7052 78.6734 36.6585 78.3458 36.5525V26.0092C78.6762 25.8956 79.0248 25.8445 79.3738 25.8588C79.7224 25.8534 80.0695 25.9042 80.4018 26.0092V30.2967H84.8147V26.0092C85.1477 25.9069 85.4944 25.8561 85.8427 25.8588C86.1914 25.8507 86.539 25.9015 86.8707 26.0092V36.5525C86.5306 36.6603 86.1741 36.707 85.8177 36.6904C85.4739 36.6996 85.131 36.653 84.8022 36.5525V31.9641H80.4144V36.5525Z" fill="#1A1E29"/>
<path d="M95.1825 25.834C95.2944 26.1085 95.3498 26.4026 95.3455 26.699C95.3504 26.9832 95.2949 27.2653 95.1825 27.5264H90.9326V36.5277C90.6007 36.6339 90.2527 36.6806 89.9046 36.6656C89.5562 36.687 89.207 36.6401 88.8766 36.5277V25.834H95.1825Z" fill="#1A1E29"/>
<path d="M110.038 21.9844C110.383 21.898 110.736 21.8517 111.091 21.8465C111.471 21.8543 111.849 21.9005 112.22 21.9844L107.544 28.7416L112.809 36.5269C112.4 36.6342 111.978 36.6807 111.555 36.6648C111.133 36.6794 110.711 36.633 110.302 36.5269L105.801 29.8072H104.297V36.5269C103.958 36.6409 103.6 36.6878 103.244 36.6648C102.887 36.6758 102.532 36.6292 102.19 36.5269V21.9844C102.535 21.8793 102.896 21.8327 103.256 21.8465C103.604 21.8315 103.952 21.8782 104.284 21.9844V28.1273H105.788L110.038 21.9844Z" fill="#1A1E29"/>
<path d="M115.153 31.9772C115.041 31.7387 114.989 31.4759 115.003 31.2125C114.996 30.9455 115.047 30.6802 115.153 30.4352H119.077C118.914 28.3165 118.012 27.2258 116.257 27.2258C115.571 27.2226 114.89 27.3283 114.238 27.5393C113.884 27.1678 113.686 26.6738 113.687 26.1602C114.598 25.7763 115.582 25.5965 116.57 25.6337C119.604 25.6337 121.146 27.5894 121.146 31.2626C121.146 34.9359 119.579 36.879 116.57 36.879C115.491 36.9257 114.417 36.7152 113.436 36.2647C113.433 35.9994 113.488 35.7365 113.596 35.4942C113.704 35.2519 113.863 35.0358 114.063 34.8606C114.745 35.092 115.461 35.2105 116.181 35.2117C117.974 35.2117 118.939 34.1586 119.102 31.9772H115.153Z" fill="#1A1E29"/>
<path d="M129.771 25.8338C129.99 26.3897 129.99 27.008 129.771 27.5639H126.7V36.5276C126.368 36.6337 126.02 36.6804 125.672 36.6655C125.323 36.6868 124.974 36.64 124.644 36.5276V27.5513H121.585C121.462 27.2794 121.399 26.9846 121.399 26.6863C121.399 26.3881 121.462 26.0932 121.585 25.8213L129.771 25.8338Z" fill="#1A1E29"/>
</svg>
