<svg width="16" height="16" viewBox="0 0 16 16" fill="none" xmlns="http://www.w3.org/2000/svg">
<path fill-rule="evenodd" clip-rule="evenodd" d="M8 1C5.62453 1 2 2 2 2V11C2 13.6197 8 15 8 15C8 15 14 13.6197 14 11V2C14 2 10.3755 1 8 1ZM3 2.77594C3.35117 2.69017 3.80501 2.58457 4.31266 2.47908C5.50394 2.23153 6.92024 2 8 2C9.07976 2 10.4961 2.23153 11.6873 2.47908C12.195 2.58457 12.6488 2.69017 13 2.77594V11C13 11.2457 12.8613 11.5729 12.3998 11.9813C11.9459 12.383 11.2997 12.7521 10.5909 13.0699C9.89221 13.3832 9.18522 13.6235 8.64768 13.7863C8.38041 13.8672 8.15854 13.9279 8.00506 13.968L8 13.9694L7.99494 13.968C7.84146 13.9279 7.61959 13.8672 7.35232 13.7863C6.81478 13.6235 6.10779 13.3832 5.40912 13.0699C4.70032 12.7521 4.05408 12.383 3.60023 11.9813C3.13873 11.5729 3 11.2457 3 11L3 2.77594ZM11 6L10.2929 5.29289L7 8.58579L5.70711 7.29289L5 8L7 10L11 6Z" fill="#1A1E29"/>
</svg>
