<?xml version="1.0" encoding="utf-8"?><svg viewBox="0 0 16 16" xmlns="http://www.w3.org/2000/svg" xmlns:xlink="http://www.w3.org/1999/xlink"><style>:root>svg{display:none}:root>svg:target{display:block}</style><svg viewBox="0 0 16 16" id="account" xmlns="http://www.w3.org/2000/svg"><path fill-rule="evenodd" clip-rule="evenodd" d="M11 3.857c0 .823-.361 1.91-.987 2.791C9.375 7.548 8.638 8 8 8c-.638 0-1.375-.453-2.013-1.352C5.36 5.768 5 4.68 5 3.858 5 2.312 6.309 1 8 1s3 1.313 3 2.857zm1 0C12 5.987 10.21 9 8 9S4 5.987 4 3.857 5.79 0 8 0s4 1.727 4 3.857zM8 10c-1.006 0-1.879.031-2.618.138-.74.107-1.38.293-1.902.629C2.384 11.47 2 12.699 2 14.5v.268l.223.148.277-.416-.277.416.002.002.003.001.007.005.022.014.071.041c.06.034.146.079.26.131.226.105.563.239 1.025.37.923.265 2.345.52 4.387.52 2.042 0 3.463-.255 4.387-.52a7.14 7.14 0 001.026-.37 3.73 3.73 0 00.33-.172l.022-.014.007-.005.003-.002h.001c.001 0 .001-.001-.276-.417l.277.416.223-.148V14.5c0-1.801-.384-3.029-1.48-3.733-.521-.335-1.163-.522-1.902-.63C9.878 10.032 9.006 10 8 10zm-4.994 4.202h-.002c.041-1.493.402-2.199 1.016-2.594.354-.227.837-.384 1.505-.48C6.19 11.03 7.005 11 8 11c.994 0 1.809.031 2.475.128.668.096 1.151.253 1.505.48.614.395.975 1.1 1.016 2.593l-.002.001a6.14 6.14 0 01-.881.317C11.287 14.755 9.958 15 8 15c-1.958 0-3.286-.245-4.113-.48a6.14 6.14 0 01-.88-.318z"/></svg><svg viewBox="0 0 16 16" id="arrow-down" xmlns="http://www.w3.org/2000/svg"><path fill-rule="evenodd" clip-rule="evenodd" d="M3 7.725L3.542 7 8 9.92 12.458 7l.542.725L8 11 3 7.725z"/></svg><svg fill="none" viewBox="0 0 10 4" id="arrow-down-white" xmlns="http://www.w3.org/2000/svg"><path fill-rule="evenodd" clip-rule="evenodd" d="M0 .725L.542 0 5 2.92 9.458 0 10 .725 5 4 0 .725z" fill="#fff"/></svg><svg viewBox="0 0 16 16" id="basket" xmlns="http://www.w3.org/2000/svg"><path d="M10 5.5H1.5l2 6h7l2-9H15"/><rect x="4" y="13" width="2" height="2" rx="1"/><rect x="8" y="13" width="2" height="2" rx="1"/></svg><svg fill="none" viewBox="0 0 11 8" id="checked" xmlns="http://www.w3.org/2000/svg"><path fill-rule="evenodd" clip-rule="evenodd" d="M11 1.379L4.736 7.714a.956.956 0 01-1.363 0L0 4.303l1.363-1.379 2.691 2.723L9.637 0 11 1.379z" fill="#fff"/></svg><svg viewBox="0 0 16 16" id="close" xmlns="http://www.w3.org/2000/svg"><path fill-rule="evenodd" clip-rule="evenodd" d="M8 8.722L14.278 15l.722-.722L8.722 8 15 1.722 14.278 1 8 7.278 1.722 1 1 1.722 7.278 8 1 14.278l.722.722L8 8.722z"/></svg><svg viewBox="0 0 14 13" id="comment" xmlns="http://www.w3.org/2000/svg"><path d="M4 3h6v1H4V3zM10 6H4v1h6V6z"/><path fill-rule="evenodd" clip-rule="evenodd" d="M4 10h10V0H0v13l4-3zm-3 1l2.667-2H13V1H1v10z"/></svg><svg fill="none" viewBox="0 0 16 16" id="favourites" xmlns="http://www.w3.org/2000/svg"><path d="M8.447 3.224l.006-.011.028-.05a4.06 4.06 0 01.623-.809C9.549 1.908 10.179 1.5 11 1.5c.926 0 1.798.232 2.43.76.616.512 1.07 1.36 1.07 2.74 0 2.717-1.302 5.533-6.5 9.38C2.802 10.532 1.5 7.717 1.5 5c0-1.38.454-2.228 1.07-2.74.632-.528 1.504-.76 2.43-.76.82 0 1.45.408 1.896.854a4.06 4.06 0 01.651.859l.006.01v.002L8 4.118l.447-.893z"/></svg><svg fill="none" viewBox="0 0 16 16" id="guarantee" xmlns="http://www.w3.org/2000/svg"><path fill-rule="evenodd" clip-rule="evenodd" d="M8 1C5.625 1 2 2 2 2v9c0 2.62 6 4 6 4s6-1.38 6-4V2s-3.624-1-6-1zM3 2.776c.351-.086.805-.191 1.313-.297C5.503 2.232 6.92 2 8 2c1.08 0 2.496.232 3.687.48A39.2 39.2 0 0113 2.775V11c0 .246-.139.573-.6.981-.454.402-1.1.771-1.81 1.089-.698.313-1.405.553-1.942.716-.268.081-.49.142-.643.182L8 13.969l-.005-.001c-.154-.04-.375-.1-.643-.182a16.653 16.653 0 01-1.943-.716c-.709-.318-1.355-.687-1.809-1.089-.461-.408-.6-.735-.6-.981V2.776zM11 6l-.707-.707L7 8.586 5.707 7.293 5 8l2 2 4-4z" fill="#1A1E29"/></svg><svg viewBox="0 0 14 14" id="insta" xmlns="http://www.w3.org/2000/svg"><path fill-rule="evenodd" clip-rule="evenodd" d="M7 10a3 3 0 100-6 3 3 0 000 6zm0-1a2 2 0 100-4 2 2 0 000 4z"/><path d="M10 4a1 1 0 100-2 1 1 0 000 2z"/><path fill-rule="evenodd" clip-rule="evenodd" d="M.436 2.184C0 3.04 0 4.16 0 6.4v1.2c0 2.24 0 3.36.436 4.216a4 4 0 001.748 1.748C3.04 14 4.16 14 6.4 14h1.2c2.24 0 3.36 0 4.216-.436a4 4 0 001.748-1.748C14 10.96 14 9.84 14 7.6V6.4c0-2.24 0-3.36-.436-4.216A4 4 0 0011.816.436C10.96 0 9.84 0 7.6 0H6.4C4.16 0 3.04 0 2.184.436A4 4 0 00.436 2.184zM7.6 1H6.4c-1.137 0-1.929 0-2.546.051-.605.05-.953.142-1.216.276a3 3 0 00-1.311 1.311c-.134.263-.226.611-.276 1.216C1.001 4.471 1 5.264 1 6.4v1.2c0 1.137 0 1.929.051 2.546.05.605.142.953.276 1.216a3 3 0 001.311 1.311c.263.134.611.226 1.216.276.617.05 1.41.051 2.546.051h1.2c1.137 0 1.929 0 2.546-.051.605-.05.953-.142 1.216-.276a3 3 0 001.311-1.311c.134-.263.226-.611.276-1.216.05-.617.051-1.41.051-2.546V6.4c0-1.137 0-1.929-.051-2.546-.05-.605-.142-.953-.276-1.216a3 3 0 00-1.311-1.311c-.263-.134-.611-.226-1.216-.276C9.529 1.001 8.736 1 7.6 1z"/></svg><svg fill="none" viewBox="0 0 16 16" id="like" xmlns="http://www.w3.org/2000/svg"><path d="M8.447 3.224h0l.006-.011.028-.05a4.06 4.06 0 01.623-.809C9.549 1.908 10.179 1.5 11 1.5c.926 0 1.798.232 2.43.76.616.512 1.07 1.36 1.07 2.74 0 2.717-1.302 5.533-6.5 9.38C2.802 10.532 1.5 7.717 1.5 5c0-1.38.454-2.228 1.07-2.74.632-.528 1.504-.76 2.43-.76.82 0 1.45.408 1.896.854a4.06 4.06 0 01.651.859l.006.01v.001h0v.001L8 4.118l.447-.893h0z" stroke="#000"/></svg><svg fill="none" viewBox="0 0 16 16" id="price" xmlns="http://www.w3.org/2000/svg"><path fill-rule="evenodd" clip-rule="evenodd" d="M4 2H2v1h2v6H2v1h2v2H2v1h2v2h1v-2h6v-1H5v-2h5a4 4 0 000-8H4zm1 1v6h5a3 3 0 100-6H5z" fill="#E5E5E5"/></svg><svg fill="none" viewBox="0 0 16 15" id="rating-full" xmlns="http://www.w3.org/2000/svg"><path fill-rule="evenodd" clip-rule="evenodd" d="M10.586 4.44L8 0 5.414 4.44.392 5.528 3.815 9.36l-.517 5.112L8 12.4l4.702 2.072-.517-5.112 3.423-3.832-5.022-1.088z" fill="#EFD8C3"/></svg><svg fill="none" viewBox="0 0 16 15" id="rating-half" xmlns="http://www.w3.org/2000/svg"><path fill-rule="evenodd" clip-rule="evenodd" d="M10.586 4.44L8 0 5.414 4.44.392 5.528 3.815 9.36l-.517 5.112L8 12.4l4.702 2.072-.517-5.112 3.423-3.832-5.022-1.088zm3.133 1.702l-3.775-.818L8 1.987v9.32l3.534 1.558-.389-3.843 2.574-2.88z" fill="#EFD8C3"/></svg><svg viewBox="0 0 16 16" id="search" xmlns="http://www.w3.org/2000/svg"><path fill-rule="evenodd" clip-rule="evenodd" d="M12 7.5a4.5 4.5 0 11-9 0 4.5 4.5 0 019 0zm-.98 4.227a5.5 5.5 0 11.707-.707l2.627 2.626-.708.708-2.627-2.627z"/></svg><svg fill="none" viewBox="0 0 16 16" id="summer" xmlns="http://www.w3.org/2000/svg"><path fill-rule="evenodd" clip-rule="evenodd" d="M7.5 3V1h1v2h-1zm-3.146.646l-2-2-.708.708 2 2 .708-.708zm10 10l-2-2-.708.708 2 2 .708-.707zM8 11a3 3 0 100-6 3 3 0 000 6zm0 1a4 4 0 100-8 4 4 0 000 8zm5.646-10.354l-2 2 .708.708 2-2-.708-.708zm-10 10l-2 2 .708.708 2-2-.708-.707zM7.5 13v2h1v-2h-1zM3 8.5H1v-1h2v1zm10 0h2v-1h-2v1z" fill="#1A1E29"/></svg><svg fill="none" viewBox="0 0 16 16" id="time" xmlns="http://www.w3.org/2000/svg"><path fill-rule="evenodd" clip-rule="evenodd" d="M14 8A6 6 0 112 8a6 6 0 0112 0zm1 0A7 7 0 111 8a7 7 0 0114 0zm-6.5-.207V4h-1v4.207l2.146 2.147.708-.708L8.5 7.793z" fill="#FFF"/></svg><svg viewBox="0 0 16 16" id="vk" xmlns="http://www.w3.org/2000/svg"><path d="M15.857 11.143c-.043-.072-.309-.65-1.589-1.838-1.34-1.245-1.16-1.043.454-3.194.983-1.31 1.376-2.11 1.253-2.452-.117-.326-.84-.24-.84-.24l-2.404.014s-.178-.024-.31.055c-.13.078-.213.258-.213.258s-.38 1.014-.889 1.876c-1.071 1.82-1.5 1.915-1.675 1.802-.407-.263-.305-1.058-.305-1.622 0-1.763.267-2.498-.521-2.688-.262-.063-.454-.105-1.123-.112-.858-.009-1.585.003-1.996.204-.274.134-.485.433-.356.45.159.021.519.097.71.357.247.335.238 1.09.238 1.09s.142 2.074-.331 2.332c-.325.177-.77-.184-1.725-1.835-.49-.845-.86-1.78-.86-1.78s-.07-.174-.198-.267c-.154-.113-.37-.149-.37-.149l-2.286.014s-.343.01-.469.16c-.112.132-.009.406-.009.406s1.79 4.187 3.817 6.299c1.859 1.935 3.969 1.808 3.969 1.808h.956s.289-.032.436-.191c.136-.146.13-.42.13-.42s-.018-1.283.578-1.472c.587-.186 1.341 1.24 2.14 1.789.604.415 1.063.324 1.063.324l2.137-.03s1.118-.07.588-.948z"/></svg><svg viewBox="0 0 16 16" id="whatsapp" xmlns="http://www.w3.org/2000/svg"><path fill-rule="evenodd" clip-rule="evenodd" d="M12.96 3.035A6.942 6.942 0 008.03 1C4.186 1 1.06 4.112 1.057 7.937a6.9 6.9 0 00.93 3.468L1 15l3.695-.965a6.991 6.991 0 003.331.845h.003c3.842 0 6.97-3.113 6.971-6.938a6.878 6.878 0 00-2.04-4.907zM8.03 13.708h-.003c-1.04 0-2.06-.278-2.949-.804l-.211-.125-2.193.573.585-2.128-.138-.218a5.731 5.731 0 01-.886-3.069c.002-3.179 2.6-5.765 5.797-5.765 1.547 0 3.002.6 4.096 1.69a5.718 5.718 0 011.695 4.08c-.001 3.18-2.6 5.766-5.794 5.766zm3.177-4.318c-.174-.087-1.03-.506-1.19-.564-.16-.058-.276-.087-.392.086-.116.174-.45.564-.551.68-.102.116-.203.13-.378.043-.174-.086-.735-.27-1.4-.86a5.232 5.232 0 01-.97-1.2c-.1-.174 0-.26.077-.354.189-.233.378-.478.436-.593.058-.116.029-.217-.015-.304-.043-.087-.392-.94-.537-1.287-.141-.338-.285-.292-.392-.298a6.996 6.996 0 00-.334-.006.641.641 0 00-.464.217c-.16.174-.61.593-.61 1.446s.624 1.678.711 1.793c.088.116 1.229 1.867 2.976 2.618.415.178.74.285.993.365a2.4 2.4 0 001.097.069c.335-.05 1.03-.42 1.176-.825.145-.405.145-.752.101-.824-.043-.072-.16-.116-.334-.202z"/></svg></svg>